<svg width="96" height="76" viewBox="0 0 96 76" fill="none" xmlns="http://www.w3.org/2000/svg">
<path d="M26.3101 4.6002e-06L45.9704 11.4203C37.6822 24.5272 33.3936 37.8268 33.1044 51.3191L33.1044 75.4608L-1.3194e-05 75.4608L-9.40261e-06 53.7767C-7.81866e-06 44.7175 2.50572 35.0801 7.51717 24.8645C12.625 14.5525 18.8893 6.26431 26.3101 4.6002e-06ZM75.8945 1.32698e-05L95.5548 11.4203C87.2666 24.5272 82.978 37.8268 82.6889 51.3192L82.6889 75.4608L49.5844 75.4608L49.5844 53.7767C49.5844 44.7175 52.0901 35.0801 57.1016 24.8645C62.2094 14.5525 68.4737 6.26432 75.8945 1.32698e-05Z" fill="#6EA725"/>
</svg>
