<svg width="716" height="760" viewBox="0 0 716 760" fill="none" xmlns="http://www.w3.org/2000/svg">
<path d="M401.846 759.375C325.468 759.375 256.727 743.381 195.624 711.392C135.216 678.709 87.6531 633.508 52.9356 575.79C18.2181 518.072 0.859375 452.704 0.859375 379.687C0.859375 306.671 18.2181 241.303 52.9356 183.585C87.6531 125.867 135.216 81.0139 195.624 49.0256C256.727 16.3419 325.468 0 401.846 0C468.504 0 528.565 11.8218 582.03 35.4654C635.495 59.1089 679.933 93.1834 715.345 137.689L584.113 256.602C536.897 199.579 479.613 171.068 412.261 171.068C372.684 171.068 337.272 179.76 306.026 197.145C275.475 214.53 251.52 239.217 234.161 271.205C217.496 302.498 209.164 338.659 209.164 379.687C209.164 420.716 217.496 457.224 234.161 489.213C251.52 520.506 275.475 544.845 306.026 562.229C337.272 579.615 372.684 588.307 412.261 588.307C479.613 588.307 536.897 559.796 584.113 502.773L715.345 621.686C679.933 666.192 635.495 700.266 582.03 723.91C528.565 747.553 468.504 759.375 401.846 759.375Z" fill="#6EA725"/>
</svg>
